# xmcd CD database file
#
# Track frame offsets:
#	150
#	13301
#	26213
#	42607
#	54057
#	64699
#	78138
#	88154
#	99249
#	111166
#	125286
#	138939
#	151240
#	163628
#	177126
#
# Disc length: 2515 seconds
#
# Revision: 0
# Processed by: cddbd v1.5.2PL0 Copyright (c) Steve Scherf et al.
# Submitted via: CDex 1.51
#
DISCID=b809d10f
DTITLE=Slim Whitman - Rose Marie   CD2
DYEAR=2005
DGENRE=Country
TTITLE0=Birmingham Jail
TTITLE1=Release Me
TTITLE2=The Three Bells
TTITLE3=I Hate To See You Cry
TTITLE4=Let's Go To Church (Next Sunday Morning)
TTITLE5=Tears Can Never Drown The Flame (That's In My Heart)
TTITLE6=Cara Mia
TTITLE7=The Wayward Wind
TTITLE8=Now Is The Hour
TTITLE9=I'll Never Pass This Way Again
TTITLE10=You Are My Sunshine
TTITLE11=North Wind
TTITLE12=Wabash Waltz
TTITLE13=Song Of The Old Waterwheel
TTITLE14=There's A Rainbow In Every Teardrop
EXTD=YEAR: 2005
EXTT0=
EXTT1=
EXTT2=
EXTT3=
EXTT4=
EXTT5=
EXTT6=
EXTT7=
EXTT8=
EXTT9=
EXTT10=
EXTT11=
EXTT12=
EXTT13=
EXTT14=
PLAYORDER=
